# xmcd
#
# Track frame offsets: 
#        150
#        17140
#        33705
#        54747
#        74566
#        93834
#        116184
#        138567
#        158677
#        178620
#        196182
#        213943
#        228194
#
# Disc length: 3333 seconds
#
# Revision: 0
# Processed by: cddbd v1.5.2PL0 Copyright (c) Steve Scherf et al.
# Submitted via: ExactAudioCopy v0.99pb4
#
DISCID=b60d030d
DTITLE=Border Band - Hard West [CD2] 
DYEAR=2005
DGENRE=Blues
TTITLE0=Keep It Comin'
TTITLE1=Honky Tonk Guitar
TTITLE2=Hombre
TTITLE3=Winter Rain
TTITLE4=Red Rose Blues
TTITLE5=No Diamonds
TTITLE6=Jam In Nam
TTITLE7=Quittin' You
TTITLE8=Bare Hands
TTITLE9=In The Jailhouse Now
TTITLE10=St. James Infirm'ry
TTITLE11=Saloon Fight
TTITLE12=Champagne In The Saddle
EXTD=
EXTT0=
EXTT1=
EXTT2=
EXTT3=
EXTT4=
EXTT5=
EXTT6=
EXTT7=
EXTT8=
EXTT9=
EXTT10=
EXTT11=
EXTT12=
PLAYORDER=
